<svg xmlns="http://www.w3.org/2000/svg" version="1.1" xmlns:xlink="http://www.w3.org/1999/xlink" xmlns:svgjs="http://svgjs.dev/svgjs" width="1000" height="1000" viewBox="0 0 1000 1000"><rect width="1000" height="1000" fill="#ffffff"></rect><g transform="matrix(0.7,0,0,0.7,149.57575757575756,332.3845611977496)"><svg viewBox="0 0 396 190" data-background-color="#ffffff" preserveAspectRatio="xMidYMid meet" height="479" width="1000" xmlns="http://www.w3.org/2000/svg" xmlns:xlink="http://www.w3.org/1999/xlink"><g id="tight-bounds" transform="matrix(1,0,0,1,0.2400000000000091,-0.019584335139938958)"><svg viewBox="0 0 395.52 190.03916867027988" height="190.03916867027988" width="395.52"><g><svg viewBox="0 0 397.4975999999999 190.98936451363124" height="190.03916867027988" width="395.52"><g><rect width="397.4975999999999" height="5.849751983104961" x="0" y="104.95935874646617" fill="#0074d9" opacity="1" stroke-width="0" stroke="transparent" fill-opacity="1" class="rect-o-0" data-fill-palette-color="secondary" rx="1%" id="o-0" data-palette-color="#0074d9"></rect></g><g transform="matrix(1,0,0,1,0.9887999999999693,126.12259759633804)"><svg viewBox="0 0 395.52 64.86676691729322" height="64.86676691729322" width="395.52"><g id="textblocktransform"><svg viewBox="0 0 395.52 64.86676691729322" height="64.86676691729322" width="395.52" id="textblock"><g><svg viewBox="0 0 395.52 64.86676691729322" height="64.86676691729322" width="395.52"><g transform="matrix(1,0,0,1,0,0)"><svg width="395.52" viewBox="3.8499999046325684 -34.900001525878906 212.77999877929688 34.900001525878906" height="64.86676691729322" data-palette-color="#0074d9"><path d="M27.8 0L27.8-21.5 28.15-27.45 27.55-27.45 25.15-21.6 18.35-7.4 11.6-21.6 9.2-27.35 8.6-27.35 8.95-21.5 8.95 0 3.85 0 3.85-34.9 10.1-34.9 15.75-22.7 18.2-15.8 18.65-15.8 21.1-22.7 26.7-34.9 32.9-34.9 32.9 0 27.8 0ZM60.85 0L40.6 0 40.6-34.9 60.85-34.9 60.85-30.25 45.9-30.25 45.9-20.05 59.4-20.05 59.4-15.45 45.9-15.45 45.9-4.65 60.85-4.65 60.85 0ZM67.39 0L67.39-34.9 78.9-34.9Q82-34.9 84.42-33.9 86.84-32.9 88.52-30.78 90.2-28.65 91.07-25.35 91.95-22.05 91.95-17.45L91.95-17.45Q91.95-12.85 91.07-9.55 90.2-6.25 88.52-4.13 86.84-2 84.42-1 82 0 78.9 0L78.9 0 67.39 0ZM72.7-4.65L78.9-4.65Q82.34-4.65 84.3-6.88 86.25-9.1 86.25-13.4L86.25-13.4 86.25-21.5Q86.25-25.8 84.3-28.03 82.34-30.25 78.9-30.25L78.9-30.25 72.7-30.25 72.7-4.65ZM110.69 0L96.89 0 96.89-4.25 101.14-4.25 101.14-30.65 96.89-30.65 96.89-34.9 110.69-34.9 110.69-30.65 106.44-30.65 106.44-4.25 110.69-4.25 110.69 0ZM135.09 0L117.09 0 117.09-34.9 122.39-34.9 122.39-4.65 135.09-4.65 135.09 0ZM152.79 0L138.99 0 138.99-4.25 143.24-4.25 143.24-30.65 138.99-30.65 138.99-34.9 152.79-34.9 152.79-30.65 148.54-30.65 148.54-4.25 152.79-4.25 152.79 0ZM177.59 0L167.19-20.95 164.53-27.45 163.89-27.45 164.28-20.85 164.28 0 159.19 0 159.19-34.9 165.28-34.9 175.69-13.95 178.39-7.45 179.04-7.45 178.64-14.05 178.64-34.9 183.74-34.9 183.74 0 177.59 0ZM210.38 0L201.08-16.5 196.73-10.9 196.73 0 191.43 0 191.43-34.9 196.73-34.9 196.73-23.4 196.43-16.9 197.08-16.9 201.53-23.4 209.73-34.9 215.83-34.9 204.73-20.1 216.63 0 210.38 0Z" opacity="1" transform="matrix(1,0,0,1,0,0)" fill="#0074d9" class="wordmark-text-0" data-fill-palette-color="primary" id="text-0"></path></svg></g></svg></g></svg></g></svg></g><g transform="matrix(1,0,0,1,132.922548701006,0)"><svg viewBox="0 0 131.6525025979879 89.64587187969924" height="89.64587187969924" width="131.6525025979879"><g><svg xmlns="http://www.w3.org/2000/svg" xmlns:xlink="http://www.w3.org/1999/xlink" version="1.1" x="7.999999999999993" y="0" viewBox="4.823001861572266 14.980999946594238 90.35501098632812 70.03699493408203" enable-background="new 0 0 100 100" xml:space="preserve" height="89.64587187969924" width="115.65250259798792" class="icon-icon-0" data-fill-palette-color="accent" id="icon-0"><path fill="#0074d9" d="M71.611 14.981c-9.679 0-17.985 5.842-21.614 14.185-3.628-8.343-11.922-14.185-21.601-14.185-13.023 0-23.573 10.553-23.573 23.57 0 7.755 3.807 14.581 9.58 18.876l35.594 27.591 35.601-27.591c5.78-4.295 9.58-11.121 9.58-18.876C95.178 25.535 84.621 14.981 71.611 14.981zM72.329 53.09H59.881l-3.455-9.343L48.84 67.1l-7.623-17.074-0.762 2.175H27.673v-3.558h10.258l2.886-8.241 7.499 16.795 7.892-24.296 6.152 16.631h9.97V53.09z" data-fill-palette-color="accent"></path></svg></g></svg></g><g><rect width="56.38942870100604" height="5.849751983104961" y="82.79611989659428" x="264.5750512989939" fill="#0074d9" data-fill-palette-color="secondary"></rect><rect width="56.38942870100604" height="5.849751983104961" y="82.79611989659428" x="76.53311999999997" fill="#0074d9" data-fill-palette-color="secondary"></rect></g></svg></g><defs></defs></svg><rect width="395.52" height="190.03916867027988" fill="none" stroke="none" visibility="hidden"></rect></g></svg></g></svg>